<?xml version="1.0" encoding="UTF-8"?>
<!DOCTYPE svg PUBLIC "-//W3C//DTD SVG 1.1//EN" "http://www.w3.org/Graphics/SVG/1.1/DTD/svg11.dtd">
<svg xmlns="http://www.w3.org/2000/svg" version="1.1" width="500px" height="500px" style="shape-rendering:geometricPrecision; text-rendering:geometricPrecision; image-rendering:optimizeQuality; fill-rule:evenodd; clip-rule:evenodd" xmlns:xlink="http://www.w3.org/1999/xlink">
<g><path style="opacity:1" fill="#5878b6" d="M 121.5,159.5 C 96.2411,158.51 70.9078,158.177 45.5,158.5C 45.5,160.5 45.5,162.5 45.5,164.5C 44.0762,162.485 43.4095,160.152 43.5,157.5C 69.8548,156.842 95.8548,157.509 121.5,159.5 Z"/></g>
<g><path style="opacity:1" fill="#8880c7" d="M 285.5,161.5 C 284.358,159.028 282.358,158.028 279.5,158.5C 278.167,158.5 276.833,158.5 275.5,158.5C 255.831,158.333 236.164,158.5 216.5,159C 215.944,159.383 215.611,159.883 215.5,160.5C 214.347,162.636 213.014,164.636 211.5,166.5C 212.202,163.56 213.202,160.727 214.5,158C 237.833,157.333 261.167,157.333 284.5,158C 285.337,159.011 285.67,160.178 285.5,161.5 Z"/></g>
<g><path style="opacity:1" fill="#c492dc" d="M 447.5,166.5 C 447.5,163.833 447.5,161.167 447.5,158.5C 441.833,158.5 436.167,158.5 430.5,158.5C 416.833,158.5 403.167,158.5 389.5,158.5C 385.4,158.237 381.4,158.57 377.5,159.5C 401.477,157.51 425.81,156.843 450.5,157.5C 450.072,160.785 449.072,163.785 447.5,166.5 Z"/></g>
<g><path style="opacity:1" fill="#164bae" d="M 121.5,159.5 C 122.404,160.209 122.737,161.209 122.5,162.5C 122.5,163.5 122.5,164.5 122.5,165.5C 120.88,164.159 119.88,162.326 119.5,160C 118.207,159.51 116.873,159.343 115.5,159.5C 115.719,160.675 115.386,161.675 114.5,162.5C 112.49,160.829 110.157,160.162 107.5,160.5C 107.667,209.168 107.5,257.834 107,306.5C 106.417,304.998 105.584,303.665 104.5,302.5C 103.833,255.167 103.167,207.833 102.5,160.5C 101.667,206.83 101.167,253.163 101,299.5C 100.689,301.556 100.189,303.556 99.5,305.5C 99.8457,306.696 100.346,306.696 101,305.5C 101.434,301.777 102.268,301.61 103.5,305C 102.047,306.713 102.214,308.213 104,309.5C 104.333,309.167 104.667,308.833 105,308.5C 105.891,312.372 105.391,316.038 103.5,319.5C 103.863,320.183 104.196,320.85 104.5,321.5C 103.833,321.5 103.167,321.5 102.5,321.5C 101.391,317.473 99.724,313.807 97.5,310.5C 97.5,310.167 97.5,309.833 97.5,309.5C 97.9227,307.219 97.256,305.552 95.5,304.5C 95.6813,301.603 95.3479,298.77 94.5,296C 93.8699,294.69 92.8699,293.856 91.5,293.5C 91.5,293.167 91.5,292.833 91.5,292.5C 91.8799,290.302 91.2132,288.635 89.5,287.5C 89.5979,285.447 88.9313,283.78 87.5,282.5C 87.9746,279.918 87.3079,277.918 85.5,276.5C 85.9465,273.99 85.2798,271.99 83.5,270.5C 79.8571,259.907 76.1904,249.24 72.5,238.5C 71.368,230.422 68.7014,223.089 64.5,216.5C 62.7922,213.05 61.4588,209.383 60.5,205.5C 60.2671,202.458 59.2671,199.792 57.5,197.5C 56.596,196.791 56.2627,195.791 56.5,194.5C 55.2503,188.08 53.5837,181.747 51.5,175.5C 50.8589,174.007 49.8589,173.007 48.5,172.5C 47.129,170.064 46.129,167.397 45.5,164.5C 45.5,162.5 45.5,160.5 45.5,158.5C 70.9078,158.177 96.2411,158.51 121.5,159.5 Z"/></g>
<g><path style="opacity:1" fill="#5756c1" d="M 275.5,158.5 C 275.665,162.182 275.499,165.848 275,169.5C 273.784,167.038 273.118,164.371 273,161.5C 272.292,160.619 271.458,159.953 270.5,159.5C 261.178,159.497 252.178,159.831 243.5,160.5C 239.5,160.5 235.5,160.5 231.5,160.5C 231.414,162.677 230.747,164.677 229.5,166.5C 230.796,173.332 231.463,180.332 231.5,187.5C 231.333,208.826 230.999,230.159 230.5,251.5C 231.23,261.485 231.73,271.485 232,281.5C 235.362,284.732 235.362,285.398 232,283.5C 231.31,285.715 230.476,287.882 229.5,290C 229.844,293.559 231.511,296.059 234.5,297.5C 232.874,300.246 232.207,303.246 232.5,306.5C 230.399,309.797 229.065,313.463 228.5,317.5C 226.733,319.792 225.733,322.458 225.5,325.5C 225.737,326.791 225.404,327.791 224.5,328.5C 220.174,328.831 217.84,331.165 217.5,335.5C 215.807,336.475 214.307,337.808 213,339.5C 212.308,338.975 211.808,338.308 211.5,337.5C 214.052,334.681 215.719,331.348 216.5,327.5C 218.441,326.065 220.108,325.065 221.5,324.5C 220.485,323.319 219.319,322.319 218,321.5C 215.939,321.235 213.773,321.568 211.5,322.5C 211.5,321.5 211.5,320.5 211.5,319.5C 212.833,319.5 214.167,319.5 215.5,319.5C 215.167,276.828 215.5,234.161 216.5,191.5C 217.005,234.306 217.838,276.973 219,319.5C 219.5,275.501 219.667,231.501 219.5,187.5C 218.167,187.5 216.833,187.5 215.5,187.5C 215.145,183.11 213.312,181.777 210,183.5C 209.5,183 209,182.5 208.5,182C 210.715,181.83 212.715,181.163 214.5,180C 212.099,179.195 212.266,178.362 215,177.5C 215.65,174.035 217.15,171.035 219.5,168.5C 218.711,166.512 217.545,166.179 216,167.5C 214.417,165.301 214.25,162.968 215.5,160.5C 215.611,159.883 215.944,159.383 216.5,159C 236.164,158.5 255.831,158.333 275.5,158.5 Z"/></g>
<g><path style="opacity:1" fill="#6757c7" d="M 270.5,159.5 C 268.433,161.318 267.1,163.651 266.5,166.5C 267.174,182.321 267.841,198.154 268.5,214C 267.68,240.47 267.18,266.97 267,293.5C 265.97,298.138 265.137,302.805 264.5,307.5C 266.343,307.755 268.343,307.922 270.5,308C 269.748,308.671 269.414,309.504 269.5,310.5C 267.833,310.5 266.167,310.5 264.5,310.5C 264.068,309.29 263.401,308.29 262.5,307.5C 261.511,302.54 260.678,297.54 260,292.5C 259.329,293.252 258.496,293.586 257.5,293.5C 257.5,293.167 257.5,292.833 257.5,292.5C 257.923,290.219 257.256,288.552 255.5,287.5C 254.859,283.577 254.859,279.743 255.5,276C 253.615,273.329 251.615,270.829 249.5,268.5C 248.833,267.5 248.167,266.5 247.5,265.5C 247.918,264.778 248.584,264.278 249.5,264C 246.469,262.925 244.469,263.925 243.5,267C 242.365,267.749 241.365,267.583 240.5,266.5C 241.325,265.614 242.325,265.281 243.5,265.5C 243.556,230.562 243.556,195.562 243.5,160.5C 252.178,159.831 261.178,159.497 270.5,159.5 Z"/></g>
<g><path style="opacity:1" fill="#a664d9" d="M 389.5,158.5 C 390.952,159.302 392.618,159.802 394.5,160C 393.552,160.483 392.552,160.649 391.5,160.5C 391.167,202.839 391.5,245.172 392.5,287.5C 393.327,291.459 393.827,295.459 394,299.5C 395.333,298.833 396.333,297.833 397,296.5C 397.333,297.167 397.667,297.833 398,298.5C 398.278,297.584 398.778,296.918 399.5,296.5C 399.5,297.833 399.5,299.167 399.5,300.5C 398.371,301.47 397.371,302.636 396.5,304C 394.39,310.052 392.723,316.219 391.5,322.5C 390.134,326.201 387.967,329.535 385,332.5C 384.172,336.466 383.672,340.466 383.5,344.5C 382.167,346.167 380.833,347.833 379.5,349.5C 377.441,350.986 376.775,352.82 377.5,355C 375.594,362.303 373.927,362.136 372.5,354.5C 369.992,352.728 368.992,350.228 369.5,347C 369.423,343.661 370.09,340.495 371.5,337.5C 370.509,289.19 370.176,240.857 370.5,192.5C 373.598,192.587 373.932,192.087 371.5,191C 372.167,190.333 372.833,189.667 373.5,189C 372.058,188.623 371.058,187.79 370.5,186.5C 372.897,181.471 374.23,176.138 374.5,170.5C 374.5,169.833 374.5,169.167 374.5,168.5C 376.655,166.383 377.655,163.716 377.5,160.5C 377.5,160.167 377.5,159.833 377.5,159.5C 381.4,158.57 385.4,158.237 389.5,158.5 Z"/></g>
<g><path style="opacity:1" fill="#b164db" d="M 389.5,158.5 C 403.167,158.5 416.833,158.5 430.5,158.5C 429.448,160.256 427.781,160.923 425.5,160.5C 425.83,176.009 425.496,191.342 424.5,206.5C 424.713,191.148 424.38,175.814 423.5,160.5C 419.167,160.5 414.833,160.5 410.5,160.5C 410.667,191.835 410.5,223.168 410,254.5C 409.766,258.314 408.932,261.981 407.5,265.5C 407.957,266.298 408.624,266.631 409.5,266.5C 408.597,269.391 408.264,272.391 408.5,275.5C 407.357,275.908 406.357,276.575 405.5,277.5C 404.225,280.373 403.392,283.373 403,286.5C 402.08,286.93 401.247,287.264 400.5,287.5C 400.987,288.446 401.32,289.446 401.5,290.5C 400.822,292.516 400.156,294.516 399.5,296.5C 398.778,296.918 398.278,297.584 398,298.5C 397.667,297.833 397.333,297.167 397,296.5C 396.333,297.833 395.333,298.833 394,299.5C 393.827,295.459 393.327,291.459 392.5,287.5C 391.5,245.172 391.167,202.839 391.5,160.5C 392.552,160.649 393.552,160.483 394.5,160C 392.618,159.802 390.952,159.302 389.5,158.5 Z"/></g>
<g><path style="opacity:1" fill="#1e4bb4" d="M 122.5,165.5 C 122.664,168.187 122.497,170.854 122,173.5C 120.935,171.604 120.102,171.437 119.5,173C 122.95,176.189 122.95,179.022 119.5,181.5C 118.167,181.5 116.833,181.5 115.5,181.5C 116.285,184.858 117.285,188.191 118.5,191.5C 119.828,239.871 119.828,288.204 118.5,336.5C 119.845,341.183 121.179,345.849 122.5,350.5C 118.991,350.542 115.658,349.876 112.5,348.5C 112.715,346.821 112.048,345.821 110.5,345.5C 110.299,342.272 110.633,339.105 111.5,336C 107.106,332.122 104.773,327.288 104.5,321.5C 104.196,320.85 103.863,320.183 103.5,319.5C 105.391,316.038 105.891,312.372 105,308.5C 104.667,308.833 104.333,309.167 104,309.5C 102.214,308.213 102.047,306.713 103.5,305C 102.268,301.61 101.434,301.777 101,305.5C 100.346,306.696 99.8457,306.696 99.5,305.5C 100.189,303.556 100.689,301.556 101,299.5C 101.167,253.163 101.667,206.83 102.5,160.5C 103.167,207.833 103.833,255.167 104.5,302.5C 105.584,303.665 106.417,304.998 107,306.5C 107.5,257.834 107.667,209.168 107.5,160.5C 110.157,160.162 112.49,160.829 114.5,162.5C 115.386,161.675 115.719,160.675 115.5,159.5C 116.873,159.343 118.207,159.51 119.5,160C 119.88,162.326 120.88,164.159 122.5,165.5 Z"/></g>
<g><path style="opacity:1" fill="#5c56c7" d="M 243.5,160.5 C 243.556,195.562 243.556,230.562 243.5,265.5C 242.325,265.281 241.325,265.614 240.5,266.5C 241.365,267.583 242.365,267.749 243.5,267C 244.469,263.925 246.469,262.925 249.5,264C 248.584,264.278 247.918,264.778 247.5,265.5C 245.386,266.36 244.22,268.027 244,270.5C 243.667,270.167 243.333,269.833 243,269.5C 242.837,271.676 242.004,273.509 240.5,275C 241.435,277.381 241.768,279.881 241.5,282.5C 240.504,282.414 239.671,282.748 239,283.5C 238.211,287.444 236.378,290.777 233.5,293.5C 233.846,294.849 234.179,296.183 234.5,297.5C 231.511,296.059 229.844,293.559 229.5,290C 230.476,287.882 231.31,285.715 232,283.5C 235.362,285.398 235.362,284.732 232,281.5C 231.73,271.485 231.23,261.485 230.5,251.5C 230.999,230.159 231.333,208.826 231.5,187.5C 231.463,180.332 230.796,173.332 229.5,166.5C 230.747,164.677 231.414,162.677 231.5,160.5C 235.5,160.5 239.5,160.5 243.5,160.5 Z"/></g>
<g><path style="opacity:1" fill="#b964e0" d="M 424.5,206.5 C 423.791,207.404 422.791,207.737 421.5,207.5C 422.625,209.821 422.792,212.154 422,214.5C 422.317,212.699 422.984,212.366 424,213.5C 424.589,211.137 426.089,210.137 428.5,210.5C 428.849,214.948 427.183,218.448 423.5,221C 424.842,225.168 423.842,226.001 420.5,223.5C 416.72,226.763 415.053,230.93 415.5,236C 415.525,238.929 416.191,241.429 417.5,243.5C 416.433,247.532 415.433,251.532 414.5,255.5C 413.026,259.257 411.359,262.923 409.5,266.5C 408.624,266.631 407.957,266.298 407.5,265.5C 408.932,261.981 409.766,258.314 410,254.5C 410.5,223.168 410.667,191.835 410.5,160.5C 414.833,160.5 419.167,160.5 423.5,160.5C 424.38,175.814 424.713,191.148 424.5,206.5 Z"/></g>
<g><path style="opacity:1" fill="#c066df" d="M 430.5,158.5 C 436.167,158.5 441.833,158.5 447.5,158.5C 447.5,161.167 447.5,163.833 447.5,166.5C 446.206,167.29 445.039,168.29 444,169.5C 441.643,177.451 439.477,185.451 437.5,193.5C 435.399,196.797 434.065,200.463 433.5,204.5C 432.208,209.382 430.541,214.048 428.5,218.5C 425.202,224.385 422.869,230.718 421.5,237.5C 419.656,239.195 418.323,241.195 417.5,243.5C 416.191,241.429 415.525,238.929 415.5,236C 415.053,230.93 416.72,226.763 420.5,223.5C 423.842,226.001 424.842,225.168 423.5,221C 427.183,218.448 428.849,214.948 428.5,210.5C 426.089,210.137 424.589,211.137 424,213.5C 422.984,212.366 422.317,212.699 422,214.5C 422.792,212.154 422.625,209.821 421.5,207.5C 422.791,207.737 423.791,207.404 424.5,206.5C 425.496,191.342 425.83,176.009 425.5,160.5C 427.781,160.923 429.448,160.256 430.5,158.5 Z"/></g>
<g><path style="opacity:1" fill="#b4a8d3" d="M 285.5,161.5 C 286.738,163.214 287.405,165.214 287.5,167.5C 285.72,166.01 285.054,164.01 285.5,161.5 Z"/></g>
<g><path style="opacity:1" fill="#bea2d1" d="M 377.5,160.5 C 377.655,163.716 376.655,166.383 374.5,168.5C 375.129,165.603 376.129,162.936 377.5,160.5 Z"/></g>
<g><path style="opacity:1" fill="#a09ecd" d="M 211.5,166.5 C 211.946,169.01 211.28,171.01 209.5,172.5C 209.595,170.214 210.262,168.214 211.5,166.5 Z"/></g>
<g><path style="opacity:1" fill="#b7a4d5" d="M 287.5,167.5 C 288.738,169.214 289.405,171.214 289.5,173.5C 287.72,172.01 287.054,170.01 287.5,167.5 Z"/></g>
<g><path style="opacity:1" fill="#6984c0" d="M 48.5,172.5 C 49.8589,173.007 50.8589,174.007 51.5,175.5C 53.5837,181.747 55.2503,188.08 56.5,194.5C 53.262,187.459 50.5953,180.126 48.5,172.5 Z"/></g>
<g><path style="opacity:1" fill="#7057c8" d="M 275.5,158.5 C 276.833,158.5 278.167,158.5 279.5,158.5C 279.196,161.579 278.196,164.413 276.5,167C 278.787,168.427 279.12,170.261 277.5,172.5C 278.324,197.457 278.824,222.457 279,247.5C 279.167,223.493 279.667,199.493 280.5,175.5C 281.833,223.5 281.833,271.5 280.5,319.5C 279.668,311.521 279.168,303.521 279,295.5C 278.667,306.167 278.333,316.833 278,327.5C 277.818,324.774 277.318,322.107 276.5,319.5C 275.5,271.505 275.167,223.505 275.5,175.5C 274.5,175.5 273.5,175.5 272.5,175.5C 272.575,214.204 272.908,252.871 273.5,291.5C 273.131,305.863 272.465,315.53 271.5,320.5C 270.5,320.5 269.5,320.5 268.5,320.5C 268.67,319.178 268.337,318.011 267.5,317C 268.253,315.513 269.086,315.346 270,316.5C 271.852,314.77 271.686,313.604 269.5,313C 270.598,312.23 270.598,311.397 269.5,310.5C 269.414,309.504 269.748,308.671 270.5,308C 268.343,307.922 266.343,307.755 264.5,307.5C 265.137,302.805 265.97,298.138 267,293.5C 267.18,266.97 267.68,240.47 268.5,214C 267.841,198.154 267.174,182.321 266.5,166.5C 267.1,163.651 268.433,161.318 270.5,159.5C 271.458,159.953 272.292,160.619 273,161.5C 273.118,164.371 273.784,167.038 275,169.5C 275.499,165.848 275.665,162.182 275.5,158.5 Z"/></g>
<g><path style="opacity:1" fill="#745ccb" d="M 279.5,158.5 C 282.358,158.028 284.358,159.028 285.5,161.5C 285.054,164.01 285.72,166.01 287.5,167.5C 287.054,170.01 287.72,172.01 289.5,173.5C 293.471,185.749 297.471,198.083 301.5,210.5C 301.993,212.806 302.326,215.139 302.5,217.5C 300.857,214.686 299.357,211.686 298,208.5C 296.196,212.187 296.363,215.687 298.5,219C 297.451,219.492 296.451,219.326 295.5,218.5C 294.433,215.703 294.433,212.869 295.5,210C 295.561,208.289 294.894,206.956 293.5,206C 294.253,204.513 295.086,204.346 296,205.5C 295.478,203.951 295.645,202.451 296.5,201C 294.963,200.617 293.63,199.784 292.5,198.5C 291.526,210.835 290.526,223.169 289.5,235.5C 289.836,244.857 290.503,254.19 291.5,263.5C 291.16,267.558 290.493,271.558 289.5,275.5C 289.5,299.5 289.5,323.5 289.5,347.5C 290.572,354.865 291.906,362.032 293.5,369C 292.268,373.121 290.602,376.288 288.5,378.5C 289.5,378.5 290.5,378.5 291.5,378.5C 291.5,381.167 291.5,383.833 291.5,386.5C 291.167,386.5 290.833,386.5 290.5,386.5C 288.125,381.047 286.125,375.381 284.5,369.5C 282.171,361.512 279.838,353.512 277.5,345.5C 276.817,345.137 276.15,344.804 275.5,344.5C 275.781,339.832 274.448,335.832 271.5,332.5C 271.267,329.458 270.267,326.792 268.5,324.5C 267.262,322.786 266.595,320.786 266.5,318.5C 266.868,315.467 266.202,312.8 264.5,310.5C 266.167,310.5 267.833,310.5 269.5,310.5C 270.598,311.397 270.598,312.23 269.5,313C 271.686,313.604 271.852,314.77 270,316.5C 269.086,315.346 268.253,315.513 267.5,317C 268.337,318.011 268.67,319.178 268.5,320.5C 269.5,320.5 270.5,320.5 271.5,320.5C 272.465,315.53 273.131,305.863 273.5,291.5C 272.908,252.871 272.575,214.204 272.5,175.5C 273.5,175.5 274.5,175.5 275.5,175.5C 275.167,223.505 275.5,271.505 276.5,319.5C 277.318,322.107 277.818,324.774 278,327.5C 278.333,316.833 278.667,306.167 279,295.5C 279.168,303.521 279.668,311.521 280.5,319.5C 281.833,271.5 281.833,223.5 280.5,175.5C 279.667,199.493 279.167,223.493 279,247.5C 278.824,222.457 278.324,197.457 277.5,172.5C 279.12,170.261 278.787,168.427 276.5,167C 278.196,164.413 279.196,161.579 279.5,158.5 Z"/></g>
<g><path style="opacity:1" fill="#3a56b0" d="M 122.5,162.5 C 125.471,171.749 128.471,181.083 131.5,190.5C 131.5,190.833 131.5,191.167 131.5,191.5C 130.883,191.389 130.383,191.056 130,190.5C 129.29,191.973 128.124,192.64 126.5,192.5C 127.129,190.535 127.796,188.535 128.5,186.5C 127.517,182.611 125.184,181.611 121.5,183.5C 120.287,183.253 119.62,182.586 119.5,181.5C 122.95,179.022 122.95,176.189 119.5,173C 120.102,171.437 120.935,171.604 122,173.5C 122.497,170.854 122.664,168.187 122.5,165.5C 122.5,164.5 122.5,163.5 122.5,162.5 Z"/></g>
<g><path style="opacity:1" fill="#ce96e0" d="M 447.5,166.5 C 444.538,175.729 441.204,184.729 437.5,193.5C 439.477,185.451 441.643,177.451 444,169.5C 445.039,168.29 446.206,167.29 447.5,166.5 Z"/></g>
<g><path style="opacity:1" fill="#a378cc" d="M 374.5,170.5 C 374.23,176.138 372.897,181.471 370.5,186.5C 368.891,189.149 368.057,192.149 368,195.5C 366.028,199.789 363.862,203.789 361.5,207.5C 365.265,194.866 369.599,182.532 374.5,170.5 Z"/></g>
<g><path style="opacity:1" fill="#274bb4" d="M 119.5,181.5 C 119.62,182.586 120.287,183.253 121.5,183.5C 125.184,181.611 127.517,182.611 128.5,186.5C 127.796,188.535 127.129,190.535 126.5,192.5C 128.124,192.64 129.29,191.973 130,190.5C 130.383,191.056 130.883,191.389 131.5,191.5C 132.801,196.419 134.134,201.419 135.5,206.5C 136.182,207.243 136.849,207.909 137.5,208.5C 139.429,215.954 141.762,223.288 144.5,230.5C 144.736,233.829 143.903,236.829 142,239.5C 141.781,238.062 141.281,236.729 140.5,235.5C 139.613,240.805 138.947,246.138 138.5,251.5C 139.584,295.493 139.584,339.493 138.5,383.5C 140.167,383.5 141.833,383.5 143.5,383.5C 153.665,383.859 163.998,384.193 174.5,384.5C 161.195,385.65 145.195,385.816 126.5,385C 125.837,383.482 124.837,382.315 123.5,381.5C 121.313,377.105 119.646,372.438 118.5,367.5C 117.602,362.466 115.935,357.799 113.5,353.5C 111.733,351.208 110.733,348.542 110.5,345.5C 112.048,345.821 112.715,346.821 112.5,348.5C 115.658,349.876 118.991,350.542 122.5,350.5C 121.179,345.849 119.845,341.183 118.5,336.5C 119.828,288.204 119.828,239.871 118.5,191.5C 117.285,188.191 116.285,184.858 115.5,181.5C 116.833,181.5 118.167,181.5 119.5,181.5 Z"/></g>
<g><path style="opacity:1" fill="#5157c0" d="M 215.5,160.5 C 214.25,162.968 214.417,165.301 216,167.5C 217.545,166.179 218.711,166.512 219.5,168.5C 217.15,171.035 215.65,174.035 215,177.5C 212.266,178.362 212.099,179.195 214.5,180C 212.715,181.163 210.715,181.83 208.5,182C 209,182.5 209.5,183 210,183.5C 213.312,181.777 215.145,183.11 215.5,187.5C 216.833,187.5 218.167,187.5 219.5,187.5C 219.667,231.501 219.5,275.501 219,319.5C 217.838,276.973 217.005,234.306 216.5,191.5C 215.5,234.161 215.167,276.828 215.5,319.5C 214.167,319.5 212.833,319.5 211.5,319.5C 211.5,320.5 211.5,321.5 211.5,322.5C 213.773,321.568 215.939,321.235 218,321.5C 219.319,322.319 220.485,323.319 221.5,324.5C 220.108,325.065 218.441,326.065 216.5,327.5C 215.719,331.348 214.052,334.681 211.5,337.5C 211.808,338.308 212.308,338.975 213,339.5C 214.307,337.808 215.807,336.475 217.5,335.5C 218.008,338.176 218.175,340.843 218,343.5C 217.692,344.308 217.192,344.975 216.5,345.5C 215.702,343.922 215.202,342.256 215,340.5C 214.667,340.833 214.333,341.167 214,341.5C 215.071,344.977 215.404,348.644 215,352.5C 213.701,355.006 212.701,357.673 212,360.5C 210.175,359.429 209.008,360.096 208.5,362.5C 209.853,363.524 210.52,364.857 210.5,366.5C 208.946,373.074 206.946,379.407 204.5,385.5C 204.159,380.372 205.159,375.539 207.5,371C 207,369.5 206.5,368 206,366.5C 202.962,370.962 201.295,375.962 201,381.5C 200.667,381.833 200.333,382.167 200,382.5C 199.506,380.866 199.34,379.199 199.5,377.5C 199.322,376.305 198.989,375.138 198.5,374C 199.801,371.058 201.634,368.558 204,366.5C 204.446,320.779 204.613,275.112 204.5,229.5C 205.5,229.5 206.5,229.5 207.5,229.5C 207.766,225.109 207.1,220.943 205.5,217C 205.694,215.14 206.028,213.307 206.5,211.5C 205.176,210.994 204.509,209.661 204.5,207.5C 203.5,207.5 202.5,207.5 201.5,207.5C 201.5,205.833 201.5,204.167 201.5,202.5C 202.5,202.5 203.5,202.5 204.5,202.5C 204.5,200.833 204.5,199.167 204.5,197.5C 203.5,197.5 202.5,197.5 201.5,197.5C 203.796,188.948 206.463,180.615 209.5,172.5C 211.28,171.01 211.946,169.01 211.5,166.5C 213.014,164.636 214.347,162.636 215.5,160.5 Z"/></g>
<g><path style="opacity:1" fill="#9b64d4" d="M 370.5,186.5 C 371.058,187.79 372.058,188.623 373.5,189C 372.833,189.667 372.167,190.333 371.5,191C 373.932,192.087 373.598,192.587 370.5,192.5C 370.176,240.857 370.509,289.19 371.5,337.5C 370.09,340.495 369.423,343.661 369.5,347C 368.992,350.228 369.992,352.728 372.5,354.5C 373.927,362.136 375.594,362.303 377.5,355C 376.775,352.82 377.441,350.986 379.5,349.5C 379.042,353.538 378.376,357.538 377.5,361.5C 375.833,366.838 374.166,372.171 372.5,377.5C 371.25,377.577 370.417,378.244 370,379.5C 369.505,381.473 369.338,383.473 369.5,385.5C 363.559,386.413 357.559,386.746 351.5,386.5C 349.5,385.833 347.5,385.167 345.5,384.5C 347.262,384.643 348.929,384.309 350.5,383.5C 350.833,380.833 351.167,378.167 351.5,375.5C 350.502,367.529 349.835,359.529 349.5,351.5C 351.208,329.499 351.875,307.499 351.5,285.5C 351.333,284.5 351.167,283.5 351,282.5C 350.417,284.002 349.584,285.335 348.5,286.5C 347.254,282.746 345.754,279.079 344,275.5C 343.802,277.382 343.302,279.048 342.5,280.5C 342.441,277.354 341.941,274.02 341,270.5C 340.768,271.737 340.268,272.737 339.5,273.5C 339.5,272.167 339.5,270.833 339.5,269.5C 341.397,267.302 342.397,264.636 342.5,261.5C 343.117,261.389 343.617,261.056 344,260.5C 345.331,256.174 346.498,251.84 347.5,247.5C 348.117,247.389 348.617,247.056 349,246.5C 350.615,241.16 352.115,235.827 353.5,230.5C 353.5,230.167 353.5,229.833 353.5,229.5C 356.636,224.438 358.636,218.771 359.5,212.5C 359.796,210.597 360.463,208.93 361.5,207.5C 363.862,203.789 366.028,199.789 368,195.5C 368.057,192.149 368.891,189.149 370.5,186.5 Z"/></g>
<g><path style="opacity:1" fill="#d6afe6" d="M 437.5,193.5 C 436.935,197.537 435.601,201.203 433.5,204.5C 434.065,200.463 435.399,196.797 437.5,193.5 Z"/></g>
<g><path style="opacity:1" fill="#7c5ccd" d="M 302.5,217.5 C 303.942,218.82 304.608,220.486 304.5,222.5C 304.588,226.264 305.588,229.764 307.5,233C 306.027,233.71 305.36,234.876 305.5,236.5C 305.196,237.15 304.863,237.817 304.5,238.5C 305.611,239.611 306.278,240.945 306.5,242.5C 306.004,246.567 305.004,249.734 303.5,252C 303.767,254.776 304.767,257.276 306.5,259.5C 307.48,262.086 307.813,264.753 307.5,267.5C 306.5,267.5 305.5,267.5 304.5,267.5C 306.128,275.583 305.794,283.583 303.5,291.5C 304.833,304.833 304.833,318.167 303.5,331.5C 304.663,338.103 305.33,344.77 305.5,351.5C 304.831,362.177 304.165,372.844 303.5,383.5C 308.812,384.109 314.146,384.609 319.5,385C 313.319,385.172 307.319,385.672 301.5,386.5C 298.167,386.5 294.833,386.5 291.5,386.5C 291.5,383.833 291.5,381.167 291.5,378.5C 290.5,378.5 289.5,378.5 288.5,378.5C 290.602,376.288 292.268,373.121 293.5,369C 291.906,362.032 290.572,354.865 289.5,347.5C 289.5,323.5 289.5,299.5 289.5,275.5C 290.493,271.558 291.16,267.558 291.5,263.5C 290.503,254.19 289.836,244.857 289.5,235.5C 290.526,223.169 291.526,210.835 292.5,198.5C 293.63,199.784 294.963,200.617 296.5,201C 295.645,202.451 295.478,203.951 296,205.5C 295.086,204.346 294.253,204.513 293.5,206C 294.894,206.956 295.561,208.289 295.5,210C 294.433,212.869 294.433,215.703 295.5,218.5C 296.451,219.326 297.451,219.492 298.5,219C 296.363,215.687 296.196,212.187 298,208.5C 299.357,211.686 300.857,214.686 302.5,217.5 Z"/></g>
<g><path style="opacity:1" fill="#5266aa" d="M 131.5,190.5 C 134.072,196.216 136.072,202.216 137.5,208.5C 136.849,207.909 136.182,207.243 135.5,206.5C 134.134,201.419 132.801,196.419 131.5,191.5C 131.5,191.167 131.5,190.833 131.5,190.5 Z"/></g>
<g><path style="opacity:1" fill="#9cb2dd" d="M 57.5,197.5 C 59.2671,199.792 60.2671,202.458 60.5,205.5C 58.7329,203.208 57.7329,200.542 57.5,197.5 Z"/></g>
<g><path style="opacity:1" fill="#4951c0" d="M 201.5,197.5 C 202.5,197.5 203.5,197.5 204.5,197.5C 204.5,199.167 204.5,200.833 204.5,202.5C 203.5,202.5 202.5,202.5 201.5,202.5C 201.5,204.167 201.5,205.833 201.5,207.5C 202.5,207.5 203.5,207.5 204.5,207.5C 204.509,209.661 205.176,210.994 206.5,211.5C 206.028,213.307 205.694,215.14 205.5,217C 207.1,220.943 207.766,225.109 207.5,229.5C 206.5,229.5 205.5,229.5 204.5,229.5C 204.613,275.112 204.446,320.779 204,366.5C 201.634,368.558 199.801,371.058 198.5,374C 198.989,375.138 199.322,376.305 199.5,377.5C 198.768,378.808 197.934,380.142 197,381.5C 195.547,378.702 194.547,375.702 194,372.5C 193,371.167 192,371.167 191,372.5C 190.18,338.144 190.347,303.81 191.5,269.5C 189,265.087 189.333,260.753 192.5,256.5C 191.469,255.3 190.635,253.966 190,252.5C 190.347,257.65 188.847,261.983 185.5,265.5C 185.211,261.894 185.544,258.394 186.5,255C 185.324,253.086 184.324,253.252 183.5,255.5C 183.312,251.617 184.812,248.284 188,245.5C 189.762,245.944 189.595,246.444 187.5,247C 188.793,247.49 190.127,247.657 191.5,247.5C 191.672,245.508 191.005,243.842 189.5,242.5C 189.846,241.304 190.346,241.304 191,242.5C 192.967,239.372 192.8,236.372 190.5,233.5C 190.799,231.185 191.632,231.185 193,233.5C 193.374,232.584 193.874,231.75 194.5,231C 191.956,229.437 191.956,227.937 194.5,226.5C 194.167,225.833 193.833,225.167 193.5,224.5C 194.319,219.828 195.485,215.828 197,212.5C 197.414,212.043 197.914,211.709 198.5,211.5C 199.149,213.624 199.983,215.624 201,217.5C 201.631,213.79 201.131,210.29 199.5,207C 200.322,203.859 200.989,200.693 201.5,197.5 Z"/></g>
<g><path style="opacity:1" fill="#a791d3" d="M 301.5,210.5 C 304.269,215.801 306.269,221.468 307.5,227.5C 306.313,225.928 305.313,224.261 304.5,222.5C 304.608,220.486 303.942,218.82 302.5,217.5C 302.326,215.139 301.993,212.806 301.5,210.5 Z"/></g>
<g><path style="opacity:1" fill="#c2a2e1" d="M 359.5,212.5 C 358.636,218.771 356.636,224.438 353.5,229.5C 355.129,223.608 357.129,217.941 359.5,212.5 Z"/></g>
<g><path style="opacity:1" fill="#8795cd" d="M 137.5,208.5 C 140.734,215.529 143.401,222.862 145.5,230.5C 145.167,230.5 144.833,230.5 144.5,230.5C 141.762,223.288 139.429,215.954 137.5,208.5 Z"/></g>
<g><path style="opacity:1" fill="#9298d3" d="M 193.5,218.5 C 193.139,222.915 191.806,226.915 189.5,230.5C 190.261,226.216 191.595,222.216 193.5,218.5 Z"/></g>
<g><path style="opacity:1" fill="#4d70b3" d="M 64.5,216.5 C 68.7014,223.089 71.368,230.422 72.5,238.5C 69.262,231.459 66.5953,224.126 64.5,216.5 Z"/></g>
<g><path style="opacity:1" fill="#c899db" d="M 428.5,218.5 C 426.738,225.127 424.405,231.461 421.5,237.5C 422.869,230.718 425.202,224.385 428.5,218.5 Z"/></g>
<g><path style="opacity:1" fill="#2b51b4" d="M 144.5,230.5 C 144.833,230.5 145.167,230.5 145.5,230.5C 146.566,232.701 147.233,235.035 147.5,237.5C 147.5,237.833 147.5,238.167 147.5,238.5C 145.797,237.34 145.131,238.007 145.5,240.5C 144.5,240.5 143.5,240.5 142.5,240.5C 142.938,244.072 143.604,247.572 144.5,251C 143.978,251.561 143.645,252.228 143.5,253C 146.025,255.727 146.025,258.393 143.5,261C 144.573,262.313 145.24,263.813 145.5,265.5C 144.185,265.888 143.185,267.222 142.5,269.5C 143.222,279.487 143.889,289.487 144.5,299.5C 144.001,327.469 143.668,355.469 143.5,383.5C 141.833,383.5 140.167,383.5 138.5,383.5C 139.584,339.493 139.584,295.493 138.5,251.5C 138.947,246.138 139.613,240.805 140.5,235.5C 141.281,236.729 141.781,238.062 142,239.5C 143.903,236.829 144.736,233.829 144.5,230.5 Z"/></g>
<g><path style="opacity:1" fill="#bb95db" d="M 353.5,230.5 C 352.115,235.827 350.615,241.16 349,246.5C 348.617,247.056 348.117,247.389 347.5,247.5C 348.731,241.468 350.731,235.801 353.5,230.5 Z"/></g>
<g><path style="opacity:1" fill="#4d57b8" d="M 201.5,197.5 C 200.989,200.693 200.322,203.859 199.5,207C 201.131,210.29 201.631,213.79 201,217.5C 199.983,215.624 199.149,213.624 198.5,211.5C 197.914,211.709 197.414,212.043 197,212.5C 195.485,215.828 194.319,219.828 193.5,224.5C 193.833,225.167 194.167,225.833 194.5,226.5C 191.956,227.937 191.956,229.437 194.5,231C 193.874,231.75 193.374,232.584 193,233.5C 191.632,231.185 190.799,231.185 190.5,233.5C 192.8,236.372 192.967,239.372 191,242.5C 190.346,241.304 189.846,241.304 189.5,242.5C 191.005,243.842 191.672,245.508 191.5,247.5C 190.127,247.657 188.793,247.49 187.5,247C 189.595,246.444 189.762,245.944 188,245.5C 184.812,248.284 183.312,251.617 183.5,255.5C 184.324,253.252 185.324,253.086 186.5,255C 185.544,258.394 185.211,261.894 185.5,265.5C 183.87,267.359 182.204,269.359 180.5,271.5C 179.246,269.741 179.579,268.241 181.5,267C 181.201,265.68 181.034,264.18 181,262.5C 179.629,265.266 177.796,267.599 175.5,269.5C 175.433,268.041 175.766,266.708 176.5,265.5C 178.448,263.68 179.448,261.346 179.5,258.5C 180.065,254.463 181.399,250.797 183.5,247.5C 184.79,246.942 185.623,245.942 186,244.5C 186.953,241.568 187.453,238.568 187.5,235.5C 187.796,233.597 188.463,231.93 189.5,230.5C 191.806,226.915 193.139,222.915 193.5,218.5C 195.796,211.269 198.462,204.269 201.5,197.5 Z"/></g>
<g><path style="opacity:1" fill="#8c70ca" d="M 304.5,222.5 C 305.313,224.261 306.313,225.928 307.5,227.5C 310.537,234.942 313.204,242.609 315.5,250.5C 312.123,247.265 310.289,243.265 310,238.5C 309.077,237.241 308.243,235.908 307.5,234.5C 306.818,235.243 306.151,235.909 305.5,236.5C 305.36,234.876 306.027,233.71 307.5,233C 305.588,229.764 304.588,226.264 304.5,222.5 Z"/></g>
<g><path style="opacity:1" fill="#6774bb" d="M 147.5,237.5 C 149.208,240.95 150.541,244.617 151.5,248.5C 148.669,245.912 147.335,242.579 147.5,238.5C 147.5,238.167 147.5,237.833 147.5,237.5 Z"/></g>
<g><path style="opacity:1" fill="#767cc1" d="M 187.5,235.5 C 187.453,238.568 186.953,241.568 186,244.5C 185.623,245.942 184.79,246.942 183.5,247.5C 184.261,243.216 185.595,239.216 187.5,235.5 Z"/></g>
<g><path style="opacity:1" fill="#b580d5" d="M 421.5,237.5 C 420.014,243.775 418.014,249.775 415.5,255.5C 415.167,255.5 414.833,255.5 414.5,255.5C 415.433,251.532 416.433,247.532 417.5,243.5C 418.323,241.195 419.656,239.195 421.5,237.5 Z"/></g>
<g><path style="opacity:1" fill="#845dcd" d="M 315.5,250.5 C 317.739,255.216 319.405,260.216 320.5,265.5C 320.402,267.553 321.069,269.22 322.5,270.5C 322.025,273.082 322.692,275.082 324.5,276.5C 324.054,279.01 324.72,281.01 326.5,282.5C 326.5,284.167 326.5,285.833 326.5,287.5C 324.907,286.652 323.74,285.319 323,283.5C 319.822,285.903 319.989,287.736 323.5,289C 321.662,290.325 320.662,292.159 320.5,294.5C 321.756,297.012 321.756,299.512 320.5,302C 321.122,304.48 322.456,304.98 324.5,303.5C 324.833,306.167 325.167,308.833 325.5,311.5C 325.389,335.499 325.055,359.499 324.5,383.5C 330.838,383.767 337.171,384.1 343.5,384.5C 344.167,384.5 344.833,384.5 345.5,384.5C 347.5,385.167 349.5,385.833 351.5,386.5C 334.833,386.5 318.167,386.5 301.5,386.5C 307.319,385.672 313.319,385.172 319.5,385C 314.146,384.609 308.812,384.109 303.5,383.5C 304.165,372.844 304.831,362.177 305.5,351.5C 305.33,344.77 304.663,338.103 303.5,331.5C 304.833,318.167 304.833,304.833 303.5,291.5C 305.794,283.583 306.128,275.583 304.5,267.5C 305.5,267.5 306.5,267.5 307.5,267.5C 307.813,264.753 307.48,262.086 306.5,259.5C 304.767,257.276 303.767,254.776 303.5,252C 305.004,249.734 306.004,246.567 306.5,242.5C 306.278,240.945 305.611,239.611 304.5,238.5C 304.863,237.817 305.196,237.15 305.5,236.5C 306.151,235.909 306.818,235.243 307.5,234.5C 308.243,235.908 309.077,237.241 310,238.5C 310.289,243.265 312.123,247.265 315.5,250.5 Z"/></g>
<g><path style="opacity:1" fill="#5565b6" d="M 151.5,248.5 C 153.405,252.216 154.739,256.216 155.5,260.5C 154.057,261.335 153.057,262.668 152.5,264.5C 152.167,263.667 151.833,262.833 151.5,262C 152.559,257.511 152.559,253.011 151.5,248.5 Z"/></g>
<g><path style="opacity:1" fill="#ad8ed3" d="M 347.5,247.5 C 346.498,251.84 345.331,256.174 344,260.5C 343.617,261.056 343.117,261.389 342.5,261.5C 343.398,256.466 345.065,251.799 347.5,247.5 Z"/></g>
<g><path style="opacity:1" fill="#c79dda" d="M 414.5,255.5 C 414.833,255.5 415.167,255.5 415.5,255.5C 413.936,262.531 411.602,269.198 408.5,275.5C 408.264,272.391 408.597,269.391 409.5,266.5C 411.359,262.923 413.026,259.257 414.5,255.5 Z"/></g>
<g><path style="opacity:1" fill="#c5caf4" d="M 179.5,258.5 C 179.448,261.346 178.448,263.68 176.5,265.5C 176.935,262.843 177.935,260.509 179.5,258.5 Z"/></g>
<g><path style="opacity:1" fill="#3651ba" d="M 147.5,238.5 C 147.335,242.579 148.669,245.912 151.5,248.5C 152.559,253.011 152.559,257.511 151.5,262C 151.833,262.833 152.167,263.667 152.5,264.5C 153.057,262.668 154.057,261.335 155.5,260.5C 156.404,261.209 156.737,262.209 156.5,263.5C 156.402,265.553 157.069,267.22 158.5,268.5C 158.054,271.01 158.72,273.01 160.5,274.5C 160.025,277.082 160.692,279.082 162.5,280.5C 164.269,284.296 165.769,288.296 167,292.5C 168.234,288.285 169.734,284.285 171.5,280.5C 173.28,279.01 173.946,277.01 173.5,274.5C 174.167,274.5 174.833,274.5 175.5,274.5C 174.395,276.713 174.395,278.88 175.5,281C 172.013,282.95 171.679,285.283 174.5,288C 173.861,292.121 173.195,296.287 172.5,300.5C 171.833,301.167 171.167,301.833 170.5,302.5C 169.5,329.492 169.167,356.492 169.5,383.5C 171.415,383.216 173.081,383.549 174.5,384.5C 163.998,384.193 153.665,383.859 143.5,383.5C 143.668,355.469 144.001,327.469 144.5,299.5C 143.889,289.487 143.222,279.487 142.5,269.5C 143.185,267.222 144.185,265.888 145.5,265.5C 145.24,263.813 144.573,262.313 143.5,261C 146.025,258.393 146.025,255.727 143.5,253C 143.645,252.228 143.978,251.561 144.5,251C 143.604,247.572 142.938,244.072 142.5,240.5C 143.5,240.5 144.5,240.5 145.5,240.5C 145.131,238.007 145.797,237.34 147.5,238.5 Z"/></g>
<g><path style="opacity:1" fill="#c9daf6" d="M 156.5,263.5 C 157.931,264.78 158.598,266.447 158.5,268.5C 157.069,267.22 156.402,265.553 156.5,263.5 Z"/></g>
<g><path style="opacity:1" fill="#ccb1e3" d="M 342.5,261.5 C 342.397,264.636 341.397,267.302 339.5,269.5C 339.733,266.458 340.733,263.792 342.5,261.5 Z"/></g>
<g><path style="opacity:1" fill="#e1cff6" d="M 320.5,265.5 C 321.931,266.78 322.598,268.447 322.5,270.5C 321.069,269.22 320.402,267.553 320.5,265.5 Z"/></g>
<g><path style="opacity:1" fill="#4050ba" d="M 199.5,377.5 C 199.34,379.199 199.506,380.866 200,382.5C 200.333,382.167 200.667,381.833 201,381.5C 201.295,375.962 202.962,370.962 206,366.5C 206.5,368 207,369.5 207.5,371C 205.159,375.539 204.159,380.372 204.5,385.5C 178.241,386.49 151.908,386.824 125.5,386.5C 124.463,385.07 123.796,383.403 123.5,381.5C 124.837,382.315 125.837,383.482 126.5,385C 145.195,385.816 161.195,385.65 174.5,384.5C 173.081,383.549 171.415,383.216 169.5,383.5C 169.167,356.492 169.5,329.492 170.5,302.5C 171.167,301.833 171.833,301.167 172.5,300.5C 173.195,296.287 173.861,292.121 174.5,288C 171.679,285.283 172.013,282.95 175.5,281C 174.395,278.88 174.395,276.713 175.5,274.5C 175.5,272.833 175.5,271.167 175.5,269.5C 177.796,267.599 179.629,265.266 181,262.5C 181.034,264.18 181.201,265.68 181.5,267C 179.579,268.241 179.246,269.741 180.5,271.5C 182.204,269.359 183.87,267.359 185.5,265.5C 188.847,261.983 190.347,257.65 190,252.5C 190.635,253.966 191.469,255.3 192.5,256.5C 189.333,260.753 189,265.087 191.5,269.5C 190.347,303.81 190.18,338.144 191,372.5C 192,371.167 193,371.167 194,372.5C 194.547,375.702 195.547,378.702 197,381.5C 197.934,380.142 198.768,378.808 199.5,377.5 Z"/></g>
<g><path style="opacity:1" fill="#877fc6" d="M 247.5,265.5 C 245.875,271.381 243.875,277.047 241.5,282.5C 241.768,279.881 241.435,277.381 240.5,275C 242.004,273.509 242.837,271.676 243,269.5C 243.333,269.833 243.667,270.167 244,270.5C 244.22,268.027 245.386,266.36 247.5,265.5 Z"/></g>
<g><path style="opacity:1" fill="#8aa0c7" d="M 83.5,270.5 C 85.2798,271.99 85.9465,273.99 85.5,276.5C 84.2616,274.786 83.595,272.786 83.5,270.5 Z"/></g>
<g><path style="opacity:1" fill="#a2a9d7" d="M 158.5,268.5 C 159.738,270.214 160.405,272.214 160.5,274.5C 158.72,273.01 158.054,271.01 158.5,268.5 Z"/></g>
<g><path style="opacity:1" fill="#878ac7" d="M 175.5,269.5 C 175.5,271.167 175.5,272.833 175.5,274.5C 174.833,274.5 174.167,274.5 173.5,274.5C 173.796,272.597 174.463,270.93 175.5,269.5 Z"/></g>
<g><path style="opacity:1" fill="#8679c5" d="M 249.5,268.5 C 251.615,270.829 253.615,273.329 255.5,276C 254.859,279.743 254.859,283.577 255.5,287.5C 252.436,281.6 250.436,275.267 249.5,268.5 Z"/></g>
<g><path style="opacity:1" fill="#b9a3da" d="M 322.5,270.5 C 323.738,272.214 324.405,274.214 324.5,276.5C 322.692,275.082 322.025,273.082 322.5,270.5 Z"/></g>
<g><path style="opacity:1" fill="#955dd4" d="M 345.5,384.5 C 344.833,384.5 344.167,384.5 343.5,384.5C 343.79,349.581 343.456,314.915 342.5,280.5C 343.302,279.048 343.802,277.382 344,275.5C 345.754,279.079 347.254,282.746 348.5,286.5C 349.584,285.335 350.417,284.002 351,282.5C 351.167,283.5 351.333,284.5 351.5,285.5C 351.875,307.499 351.208,329.499 349.5,351.5C 349.835,359.529 350.502,367.529 351.5,375.5C 351.167,378.167 350.833,380.833 350.5,383.5C 348.929,384.309 347.262,384.643 345.5,384.5 Z"/></g>
<g><path style="opacity:1" fill="#808ec3" d="M 85.5,276.5 C 87.3079,277.918 87.9746,279.918 87.5,282.5C 86.2616,280.786 85.595,278.786 85.5,276.5 Z"/></g>
<g><path style="opacity:1" fill="#a98ccc" d="M 339.5,269.5 C 339.5,270.833 339.5,272.167 339.5,273.5C 338.698,274.952 338.198,276.618 338,278.5C 337.292,279.381 336.458,280.047 335.5,280.5C 336.462,276.605 337.796,272.939 339.5,269.5 Z"/></g>
<g><path style="opacity:1" fill="#969bcd" d="M 160.5,274.5 C 161.738,276.214 162.405,278.214 162.5,280.5C 160.692,279.082 160.025,277.082 160.5,274.5 Z"/></g>
<g><path style="opacity:1" fill="#a3a6d2" d="M 173.5,274.5 C 173.946,277.01 173.28,279.01 171.5,280.5C 171.595,278.214 172.262,276.214 173.5,274.5 Z"/></g>
<g><path style="opacity:1" fill="#bda8dc" d="M 324.5,276.5 C 325.738,278.214 326.405,280.214 326.5,282.5C 324.72,281.01 324.054,279.01 324.5,276.5 Z"/></g>
<g><path style="opacity:1" fill="#c5dbf8" d="M 87.5,282.5 C 88.9313,283.78 89.5979,285.447 89.5,287.5C 88.0687,286.22 87.4021,284.553 87.5,282.5 Z"/></g>
<g><path style="opacity:1" fill="#8e5dd3" d="M 342.5,280.5 C 343.456,314.915 343.79,349.581 343.5,384.5C 337.171,384.1 330.838,383.767 324.5,383.5C 325.055,359.499 325.389,335.499 325.5,311.5C 325.167,308.833 324.833,306.167 324.5,303.5C 322.456,304.98 321.122,304.48 320.5,302C 321.756,299.512 321.756,297.012 320.5,294.5C 320.662,292.159 321.662,290.325 323.5,289C 319.989,287.736 319.822,285.903 323,283.5C 323.74,285.319 324.907,286.652 326.5,287.5C 327.302,288.952 327.802,290.618 328,292.5C 328.383,291.944 328.883,291.611 329.5,291.5C 329.215,293.288 329.548,294.955 330.5,296.5C 331.298,296.043 331.631,295.376 331.5,294.5C 331.5,294.167 331.5,293.833 331.5,293.5C 334.695,293.256 335.695,291.756 334.5,289C 335.182,285.831 336.515,282.997 338.5,280.5C 339.474,278.257 339.808,275.924 339.5,273.5C 340.268,272.737 340.768,271.737 341,270.5C 341.941,274.02 342.441,277.354 342.5,280.5 Z"/></g>
<g><path style="opacity:1" fill="#ba89da" d="M 408.5,275.5 C 406.071,284.125 403.071,292.458 399.5,300.5C 399.5,299.167 399.5,297.833 399.5,296.5C 400.156,294.516 400.822,292.516 401.5,290.5C 401.32,289.446 400.987,288.446 400.5,287.5C 401.247,287.264 402.08,286.93 403,286.5C 403.392,283.373 404.225,280.373 405.5,277.5C 406.357,276.575 407.357,275.908 408.5,275.5 Z"/></g>
<g><path style="opacity:1" fill="#9d95ca" d="M 255.5,287.5 C 257.256,288.552 257.923,290.219 257.5,292.5C 256.069,291.22 255.402,289.553 255.5,287.5 Z"/></g>
<g><path style="opacity:1" fill="#7495c0" d="M 89.5,287.5 C 91.2132,288.635 91.8799,290.302 91.5,292.5C 90.0687,291.22 89.4021,289.553 89.5,287.5 Z"/></g>
<g><path style="opacity:1" fill="#8078c7" d="M 241.5,282.5 C 238.871,290.73 235.871,298.73 232.5,306.5C 232.207,303.246 232.874,300.246 234.5,297.5C 234.179,296.183 233.846,294.849 233.5,293.5C 236.378,290.777 238.211,287.444 239,283.5C 239.671,282.748 240.504,282.414 241.5,282.5 Z"/></g>
<g><path style="opacity:1" fill="#af97d1" d="M 326.5,282.5 C 328.072,285.215 329.072,288.215 329.5,291.5C 328.883,291.611 328.383,291.944 328,292.5C 327.802,290.618 327.302,288.952 326.5,287.5C 326.5,285.833 326.5,284.167 326.5,282.5 Z"/></g>
<g><path style="opacity:1" fill="#9471c7" d="M 339.5,273.5 C 339.808,275.924 339.474,278.257 338.5,280.5C 336.515,282.997 335.182,285.831 334.5,289C 335.695,291.756 334.695,293.256 331.5,293.5C 332.435,289.03 333.768,284.697 335.5,280.5C 336.458,280.047 337.292,279.381 338,278.5C 338.198,276.618 338.698,274.952 339.5,273.5 Z"/></g>
<g><path style="opacity:1" fill="#9081cf" d="M 262.5,307.5 C 260.462,303.06 258.796,298.393 257.5,293.5C 258.496,293.586 259.329,293.252 260,292.5C 260.678,297.54 261.511,302.54 262.5,307.5 Z"/></g>
<g><path style="opacity:1" fill="#bb9ad8" d="M 329.5,291.5 C 330.167,292.5 330.833,293.5 331.5,294.5C 331.631,295.376 331.298,296.043 330.5,296.5C 329.548,294.955 329.215,293.288 329.5,291.5 Z"/></g>
<g><path style="opacity:1" fill="#637bbb" d="M 91.5,293.5 C 92.8699,293.856 93.8699,294.69 94.5,296C 95.3479,298.77 95.6813,301.603 95.5,304.5C 93.7957,301.061 92.4624,297.395 91.5,293.5 Z"/></g>
<g><path style="opacity:1" fill="#7288c0" d="M 95.5,304.5 C 97.256,305.552 97.9227,307.219 97.5,309.5C 96.0687,308.22 95.4021,306.553 95.5,304.5 Z"/></g>
<g><path style="opacity:1" fill="#bf93dc" d="M 399.5,300.5 C 397.405,308.126 394.738,315.459 391.5,322.5C 392.723,316.219 394.39,310.052 396.5,304C 397.371,302.636 398.371,301.47 399.5,300.5 Z"/></g>
<g><path style="opacity:1" fill="#aeabdd" d="M 232.5,306.5 C 231.935,310.537 230.601,314.203 228.5,317.5C 229.065,313.463 230.399,309.797 232.5,306.5 Z"/></g>
<g><path style="opacity:1" fill="#9d8fd4" d="M 262.5,307.5 C 263.401,308.29 264.068,309.29 264.5,310.5C 266.202,312.8 266.868,315.467 266.5,318.5C 264.399,315.203 263.065,311.537 262.5,307.5 Z"/></g>
<g><path style="opacity:1" fill="#9cb4e2" d="M 97.5,310.5 C 99.724,313.807 101.391,317.473 102.5,321.5C 102.5,322.167 102.5,322.833 102.5,323.5C 100.266,319.478 98.5995,315.144 97.5,310.5 Z"/></g>
<g><path style="opacity:1" fill="#a9a6db" d="M 228.5,317.5 C 228.267,320.542 227.267,323.208 225.5,325.5C 225.733,322.458 226.733,319.792 228.5,317.5 Z"/></g>
<g><path style="opacity:1" fill="#bdb5e5" d="M 268.5,324.5 C 270.267,326.792 271.267,329.458 271.5,332.5C 269.733,330.208 268.733,327.542 268.5,324.5 Z"/></g>
<g><path style="opacity:1" fill="#af7ad4" d="M 391.5,322.5 C 389.405,330.126 386.738,337.459 383.5,344.5C 383.672,340.466 384.172,336.466 385,332.5C 387.967,329.535 390.134,326.201 391.5,322.5 Z"/></g>
<g><path style="opacity:1" fill="#9485cc" d="M 271.5,332.5 C 274.448,335.832 275.781,339.832 275.5,344.5C 273.595,340.784 272.261,336.784 271.5,332.5 Z"/></g>
<g><path style="opacity:1" fill="#405db1" d="M 102.5,321.5 C 103.167,321.5 103.833,321.5 104.5,321.5C 104.773,327.288 107.106,332.122 111.5,336C 110.633,339.105 110.299,342.272 110.5,345.5C 107.262,338.459 104.595,331.126 102.5,323.5C 102.5,322.833 102.5,322.167 102.5,321.5 Z"/></g>
<g><path style="opacity:1" fill="#6161bc" d="M 224.5,328.5 C 220.405,341.461 215.738,354.127 210.5,366.5C 210.52,364.857 209.853,363.524 208.5,362.5C 209.008,360.096 210.175,359.429 212,360.5C 212.701,357.673 213.701,355.006 215,352.5C 215.404,348.644 215.071,344.977 214,341.5C 214.333,341.167 214.667,340.833 215,340.5C 215.202,342.256 215.702,343.922 216.5,345.5C 217.192,344.975 217.692,344.308 218,343.5C 218.175,340.843 218.008,338.176 217.5,335.5C 217.84,331.165 220.174,328.831 224.5,328.5 Z"/></g>
<g><path style="opacity:1" fill="#a97dcd" d="M 383.5,344.5 C 381.875,350.381 379.875,356.047 377.5,361.5C 378.376,357.538 379.042,353.538 379.5,349.5C 380.833,347.833 382.167,346.167 383.5,344.5 Z"/></g>
<g><path style="opacity:1" fill="#9989ce" d="M 275.5,344.5 C 276.15,344.804 276.817,345.137 277.5,345.5C 279.838,353.512 282.171,361.512 284.5,369.5C 280.932,361.47 277.932,353.137 275.5,344.5 Z"/></g>
<g><path style="opacity:1" fill="#687fba" d="M 113.5,353.5 C 115.935,357.799 117.602,362.466 118.5,367.5C 116.065,363.201 114.398,358.534 113.5,353.5 Z"/></g>
<g><path style="opacity:1" fill="#c5aad9" d="M 372.5,377.5 C 371.871,380.397 370.871,383.064 369.5,385.5C 369.338,383.473 369.505,381.473 370,379.5C 370.417,378.244 371.25,377.577 372.5,377.5 Z"/></g>
<g><path style="opacity:1" fill="#7f8bcf" d="M 204.5,385.5 C 191.684,386.833 178.517,387.499 165,387.5C 151.662,387.5 138.496,387.167 125.5,386.5C 151.908,386.824 178.241,386.49 204.5,385.5 Z"/></g>
<g><path style="opacity:1" fill="#b197e0" d="M 369.5,385.5 C 356.684,386.833 343.517,387.499 330,387.5C 316.662,387.5 303.496,387.167 290.5,386.5C 290.833,386.5 291.167,386.5 291.5,386.5C 294.833,386.5 298.167,386.5 301.5,386.5C 318.167,386.5 334.833,386.5 351.5,386.5C 357.559,386.746 363.559,386.413 369.5,385.5 Z"/></g>
</svg>
